{"title":"Joy.2015.WEBRip.480p.x264.AAC-VYTO [P2PDL]","uid":14239224,"size":481620763,"categoryP":"video","categoryS":"movies","magnet":"?xt=urn:btih:1cc6964bb8d72494e179f43e8f3b8afefd231b1a&amp;dn=Joy.2015.WEBRip.480p.x264.AAC-VYTO+%5BP2PDL%5D&amp;tr=udp%3A%2F%2Ftracker.leechers-paradise.org%3A6969&amp;tr=udp%3A%2F%2Fzer0day.ch%3A1337&amp;tr=udp%3A%2F%2Fopen.demonii.com%3A1337&amp;tr=udp%3A%2F%2Ftracker.coppersurfer.tk%3A6969&amp;tr=udp%3A%2F%2Fexodus.desync.com%3A6969","seeders":5,"leechers":2,"uploader":"VYTOP2PDL","files":7,"time":1460128430,"description":"____    ____ ____    ____ .___________.  ______   \r\n     /   /      /   / |           | /  __    \r\n    /   /      /   /  `---|  |----`|  |  |  | \r\n        /     _    _/       |  |     |  |  |  | \r\n       /        |  |         |  |     |  `--'  | \r\n    __/         |__|         |__|      ______/  \r\n                                                  \r\nPresenting Small Encodes with quality for years!\r\n                                                                                                   \r\n                                                                                                   \r\n\r\n\r\nJoy.2015.WEBRip.480p.x264.AAC-VYTO\r\n\r\n\r\nGenre: Biography, Comedy, Drama \nhttp://www.imdb.com/title/tt2446980/\r\n\r\n\r\nFormat                                   : MPEG-4\r\nFile size                                : 452 MiB\r\nDuration                                 : 2h 4mn\r\nOverall bit rate                         : 508 Kbps\r\n\r\nVideo\r\nFormat                                   : AVC\r\nBit rate                                 : 465 Kbps\r\nWidth                                    : 720 pixels\r\nHeight                                   : 384 pixels\r\nDisplay aspect ratio                     : 1.85:1\r\nFrame rate mode                          : Constant\r\nFrame rate                               : 23.976 fps\r\nBit depth                                : 8 bits\r\nStream size                              : 413 MiB (92%)\r\nWriting library                          : x264 \r\n\r\nAudio\r\nFormat                                   : AAC\r\nBit rate                                 : 39.9 Kbps\r\nChannel(s)                               : 2 channels\r\nChannel positions                        : Front: L R\r\nSampling rate                            : 48.0 KHz\r\nStream size                              : 35.4 MiB (8%)\r\nLanguage                                 : English\r\n\r\nSubtitle                                 : Yes (English)\r\n\r\nScreen Shots: (Click the link to view)\r\n \nhttp://ititli.com/XUe \nhttp://ititli.com/XUj \nhttp://ititli.com/XUk \nhttp://ititli.com/XUo \nhttp://ititli.com/XUG \nhttp://ititli.com/XUH \nhttp://ititli.com/XUM \nhttp://ititli.com/XUU \nhttp://ititli.com/XUh \nhttp://ititli.com/XUs \nhttp://ititli.com/XUY \nhttp://ititli.com/XU4\r\n\r\n----------------------------------------------------------------------------------------------------\r\n\r\n\r\nEncoder Notes: Looking For Early Access To Anything You Can Provide WEBDL, DVDScr, DVDR, BluRay,\r\nDirect Audio, Music Releases and Seedboxes. If You Got anything to offer please contact us.\r\n\r\nSupport us by donating BC - 1FgwdzPsd1y25Gea8wP1qni35uGCtmkRCD\r\n\r\nFind us and join us!","torrent":{"xt":"urn:btih:1cc6964bb8d72494e179f43e8f3b8afefd231b1a","amp;dn":"Joy.2015.WEBRip.480p.x264.AAC-VYTO+%5BP2PDL%5D","amp;tr":["udp%3A%2F%2Ftracker.leechers-paradise.org%3A6969","udp%3A%2F%2Fzer0day.ch%3A1337","udp%3A%2F%2Fopen.demonii.com%3A1337","udp%3A%2F%2Ftracker.coppersurfer.tk%3A6969","udp%3A%2F%2Fexodus.desync.com%3A6969"],"infoHash":"1cc6964bb8d72494e179f43e8f3b8afefd231b1a","infoHashBuffer":{"type":"Buffer","data":[28,198,150,75,184,215,36,148,225,121,244,62,143,59,138,254,253,35,27,26]},"announce":[],"urlList":[]}}